<svg width="28" height="24" viewBox="0 0 28 24" fill="none" xmlns="http://www.w3.org/2000/svg">
<path d="M25.9998 0C26.3535 0 26.6926 0.140476 26.9426 0.390524C27.1927 0.640573 27.3332 0.979711 27.3332 1.33333V8.66667C26.4491 8.66667 25.6013 9.01786 24.9761 9.64298C24.351 10.2681 23.9998 11.1159 23.9998 12C23.9998 12.8841 24.351 13.7319 24.9761 14.357C25.6013 14.9821 26.4491 15.3333 27.3332 15.3333V22.6667C27.3332 23.0203 27.1927 23.3594 26.9426 23.6095C26.6926 23.8595 26.3535 24 25.9998 24H1.99984C1.64622 24 1.30708 23.8595 1.05703 23.6095C0.80698 23.3594 0.666504 23.0203 0.666504 22.6667V15.3333C1.55056 15.3333 2.39841 14.9821 3.02353 14.357C3.64865 13.7319 3.99984 12.8841 3.99984 12C3.99984 11.1159 3.64865 10.2681 3.02353 9.64298C2.39841 9.01786 1.55056 8.66667 0.666504 8.66667V1.33333C0.666504 0.979711 0.80698 0.640573 1.05703 0.390524C1.30708 0.140476 1.64622 0 1.99984 0H25.9998ZM19.3332 8H8.6665V16H19.3332V8Z" fill="#0059F7"/>
</svg>
